<svg width="374" height="113" viewBox="0 0 374 113" fill="none" xmlns="http://www.w3.org/2000/svg">
<path fill-rule="evenodd" clip-rule="evenodd" d="M15.6107 78.498L47.5159 96.7807C48.574 97.1075 49.2012 96.7813 49.3495 95.7324V58.9228C49.3615 58.5122 49.1507 58.1774 48.7523 57.9065L9.83969 35.6078C9.43664 35.3156 9.1746 35.0514 9.17859 34.4304V33.0154C9.18258 32.449 9.3289 32.0849 9.78515 31.7794L51.7532 7.47932C52.3351 7.08263 52.7275 7.21109 53.1512 7.53389L75.6214 20.4174C75.6413 23.4704 78.1594 25.939 81.264 25.939C84.3806 25.939 86.9067 23.4504 86.9067 20.3808C86.9067 17.3112 84.3806 14.8233 81.264 14.8233C80.2883 14.8233 79.3698 15.0675 78.5691 15.4968L53.1831 0.932067C52.659 0.554687 52.1316 0.608598 51.6508 0.894795L4.0454 28.59C3.55257 28.9308 3.38297 29.2908 3.367 29.9191V37.7629C3.36833 38.2588 3.57451 38.6421 3.98488 38.8724L14.3357 44.8047C14.6969 44.9937 14.9968 45.4623 14.9902 45.9235L14.9888 77.4671C14.9948 77.9097 15.211 78.2484 15.6107 78.498ZM81.2647 18.4393C82.3534 18.4393 83.236 19.3086 83.236 20.3815C83.236 21.4544 82.3534 22.3236 81.2647 22.3236C80.1753 22.3236 79.2927 21.4544 79.2927 20.3815C79.2927 19.3086 80.1753 18.4393 81.2647 18.4393Z" fill="white"/>
<path fill-rule="evenodd" clip-rule="evenodd" d="M51.5716 14.4459L19.5434 32.5175C18.7274 33.257 18.7001 33.9545 19.5487 34.6054L51.9162 53.0099C52.2713 53.2255 52.6717 53.2129 53.1087 53.0085L92.1722 30.9674C92.6305 30.7697 92.9936 30.6785 93.537 30.992L94.7814 31.6995C95.2776 31.9864 95.5243 32.2932 95.5649 32.835L95.9486 80.7816C96.0065 81.4771 95.6972 81.7467 95.2011 81.9464L72.6378 94.6715C69.9435 93.1613 66.513 94.0751 64.9606 96.7234C63.4023 99.3817 64.3275 102.781 67.0264 104.316C69.7254 105.85 73.1765 104.94 74.7348 102.282C75.223 101.449 75.4671 100.543 75.4897 99.6453L100.989 85.2762C101.583 85.0173 101.799 84.5414 101.788 83.9877L101.238 29.5358C101.185 28.9447 100.953 28.6206 100.408 28.2925L93.5111 24.3709C93.0741 24.1233 92.6352 24.108 92.2268 24.3423L81.8354 30.2053C81.4889 30.419 80.9268 30.4409 80.5245 30.204L52.7894 14.4312C52.3977 14.2149 51.9907 14.2302 51.5716 14.4459ZM71.5557 100.474C71.011 101.402 69.8052 101.721 68.8621 101.184C67.919 100.648 67.5957 99.4603 68.1398 98.5311C68.6845 97.6026 69.8896 97.2845 70.8334 97.8209C71.7765 98.3574 72.0997 99.5448 71.5557 100.474Z" fill="white"/>
<path fill-rule="evenodd" clip-rule="evenodd" d="M0.757135 52.9256C-0.801177 50.2673 0.123967 46.8682 2.82291 45.3334C5.52186 43.7986 8.97303 44.7098 10.532 47.3674C12.0897 50.0257 11.1652 53.4248 8.46623 54.9596L8.49682 54.9416L8.40437 80.5482C8.33254 81.0714 8.41502 81.4701 9.05483 81.7682L51.4066 105.415C51.9034 105.651 52.2965 105.594 52.7967 105.314L54.0411 104.607C54.5891 104.301 54.6902 103.944 54.7454 103.455L54.8964 59.1154C54.9349 58.6402 55.1245 58.2928 55.4916 58.0978L87.8584 39.6933C88.8547 39.2953 89.4546 39.6667 89.6967 40.733L89.573 77.0873C89.5537 77.5525 89.3635 77.9066 88.9771 78.1329L61.24 93.903C60.831 94.1279 60.5689 94.6185 60.5836 95.0205L60.543 106.815C60.5457 107.28 60.3116 107.648 59.8759 107.897L52.9789 111.818C52.4182 112.119 52.0165 112.154 51.4705 111.905L3.31508 85.148C2.82291 84.8811 2.51232 84.4585 2.58149 83.8222L2.69655 54.8877C1.91839 54.4198 1.24398 53.7582 0.755805 52.9256H0.757135ZM3.93694 51.1172C3.39223 50.1881 3.71547 49.0007 4.65857 48.4643C5.60167 47.9285 6.80749 48.246 7.3522 49.1751C7.89691 50.1042 7.57367 51.2916 6.63057 51.8281C5.68747 52.3639 4.48166 52.0464 3.93694 51.1172Z" fill="white"/>
<path d="M153.279 67.2503L136.539 47.0887L152.347 29.883H141.255L128.143 45.0833H127.988V29.883H119.281V67.2503H127.988V50.0445H128.091L141.722 67.2503H153.279ZM179.296 67.2503V40.9668H170.796V55.1641C170.796 58.1725 169.189 60.8115 166.236 60.8115C163.126 60.8115 162.401 58.1725 162.401 55.2167V40.9668H153.849V57.2227C153.849 62.5007 156.285 67.9897 163.229 67.9897C166.858 67.9897 169.811 65.9311 171.004 63.6089H171.107V67.2509H179.296V67.2503ZM214.694 54.0027C214.694 46.6661 210.029 40.2273 202.515 40.2273C198.731 40.2273 196.088 42.0217 194.636 43.7635H194.533V27.3491H186.033V67.2496H193.859V63.8192H193.963C195.622 66.4582 198.99 67.9884 202.411 67.9884C210.185 67.9884 214.694 61.3386 214.694 54.002V54.0027ZM206.505 54.0027C206.505 57.4331 204.432 60.8108 200.39 60.8108C196.555 60.8108 194.17 57.4856 194.17 54.0553C194.17 50.7301 196.555 47.2997 200.39 47.2997C204.432 47.2997 206.505 50.6249 206.505 54.0027ZM226.925 51.0995C227.132 48.4079 229.517 46.0857 232.782 46.0857C236.15 46.0857 237.861 48.3553 237.861 51.0995H226.925ZM245.687 54.4247C245.687 45.4521 240.349 40.1215 232.73 40.1215C224.904 40.1215 218.789 45.6105 218.789 54.213C218.789 63.0798 225.215 68.0935 232.989 68.0935C238.223 68.0935 242.266 66.0882 244.702 62.4994L238.793 58.699C237.653 60.2824 235.787 61.4438 233.093 61.4438C230.035 61.4438 227.185 59.3852 226.925 56.4826H245.635C245.687 55.8497 245.687 55.1102 245.687 54.424V54.4247ZM268.076 40.4383C267.662 40.2799 266.936 40.2273 266.262 40.2273C263.101 40.2273 260.561 42.1275 259.266 44.7665H259.162V40.9661H250.973V67.2496H259.473V53.7385C259.473 51.5747 260.976 47.7749 265.537 47.7749C266.21 47.7749 266.936 47.8275 267.714 48.0385L268.076 40.4383ZM295.078 67.2496V59.3858H280.878V29.883H271.964V67.2503H295.079L295.078 67.2496ZM307.983 32.5739C307.983 29.9349 305.806 27.8237 303.111 27.8237C300.364 27.8237 298.239 30.04 298.239 32.5739C298.239 35.1603 300.364 37.3241 303.111 37.3241C305.806 37.3241 307.983 35.2655 307.983 32.5739ZM307.361 67.2496V40.9661H298.861V67.2496H307.361ZM339.597 67.2496V50.9936C339.597 45.7156 337.11 40.2266 330.165 40.2266C326.589 40.2266 323.634 42.2853 322.442 44.6074H322.338V40.9654H314.098V67.2489H322.65V52.999C322.65 49.9906 324.204 47.3516 327.21 47.3516C330.268 47.3516 331.045 49.9906 331.045 52.8932V67.2489H339.597L339.597 67.2496ZM363.386 52.8413L373.337 40.9661H363.023L354.783 51.6273H354.627V27.3491H346.076V67.2496H354.627V54.6356H354.783L363.231 67.2496H373.752L363.387 52.8413H363.386Z" fill="white"/>
<path d="M126.067 76.7318C125.474 75.8879 124.32 75.4999 123.346 75.4999C121.037 75.4999 119.279 77.1312 119.279 79.7209C119.279 82.2421 120.942 83.9879 123.282 83.9879C124.553 83.9879 125.527 83.4628 126.184 82.5729L125.114 81.7629C124.733 82.322 124.098 82.6987 123.293 82.6987C121.748 82.6987 120.751 81.4781 120.751 79.7209C120.751 78.055 121.8 76.7658 123.346 76.7658C123.95 76.7658 124.659 77.0167 125.05 77.5984L126.067 76.7312V76.7318ZM138.193 83.7829H142.715V82.505H139.527V75.7055H138.193V83.7829ZM154.11 79.7209C154.11 82.2421 155.815 83.9879 158.124 83.9879C160.465 83.9879 162.169 82.2421 162.169 79.7209C162.169 77.1312 160.465 75.4999 158.124 75.4999C155.816 75.4999 154.11 77.1312 154.11 79.7209ZM155.561 79.7209C155.561 78.055 156.588 76.7658 158.134 76.7658C159.691 76.7658 160.718 78.055 160.718 79.7209C160.718 81.4434 159.67 82.6987 158.134 82.6987C156.609 82.6987 155.561 81.4434 155.561 79.7209ZM180.617 75.7049H179.283V80.7592C179.283 81.695 178.88 82.6987 177.599 82.6987C176.317 82.6987 175.915 81.6944 175.915 80.7592V75.7049H174.58V80.8165C174.58 82.7673 175.883 83.9886 177.599 83.9886C179.315 83.9886 180.617 82.7679 180.617 80.8165V75.7049ZM193.389 83.7823H196.046C198.006 83.7823 200.187 82.5729 200.187 79.7436C200.187 76.7086 198.006 75.7049 196.046 75.7049H193.389V83.7823ZM194.723 82.527V76.9362H195.835C197.212 76.9362 198.758 77.4267 198.758 79.7429C198.758 81.922 197.212 82.527 195.835 82.527H194.723ZM230.188 76.3658C229.616 75.7841 228.758 75.4985 228.006 75.4985C226.651 75.4985 225.263 76.2287 225.263 77.8713C225.263 79.3775 226.248 79.8567 227.159 80.1649C228.101 80.4843 228.885 80.724 228.885 81.5679C228.885 82.4351 228.154 82.7659 227.529 82.7659C226.937 82.7659 226.258 82.4238 225.888 81.8761L224.935 82.8345C225.528 83.5879 226.534 83.9866 227.508 83.9866C228.98 83.9866 230.24 83.1427 230.24 81.4082C230.24 79.8221 229.012 79.3655 228.048 79.046C227.201 78.7605 226.618 78.5442 226.618 77.8028C226.618 77.0154 227.328 76.6959 227.942 76.6959C228.471 76.6959 229.032 76.9928 229.318 77.3921L230.186 76.3651L230.188 76.3658ZM242.399 79.7203C242.399 82.2415 244.103 83.9873 246.413 83.9873C248.753 83.9873 250.458 82.2415 250.458 79.7203C250.458 77.1305 248.753 75.4992 246.413 75.4992C244.104 75.4992 242.399 77.1305 242.399 79.7203ZM243.849 79.7203C243.849 78.0543 244.876 76.7651 246.423 76.7651C247.98 76.7651 249.006 78.0543 249.006 79.7203C249.006 81.4428 247.958 82.698 246.423 82.698C244.897 82.698 243.849 81.4428 243.849 79.7203ZM262.933 83.7823H267.455V82.5044H264.267V75.7049H262.933V83.7823ZM285.247 75.7049H283.912V80.7592C283.912 81.695 283.51 82.6987 282.228 82.6987C280.947 82.6987 280.544 81.6944 280.544 80.7592V75.7049H279.21V80.8165C279.21 82.7673 280.513 83.9886 282.228 83.9886C283.944 83.9886 285.247 82.7679 285.247 80.8165V75.7049ZM299.533 83.7823H300.867V76.9595H303.165V75.7042H297.234V76.9595H299.532V83.7823H299.533ZM315.217 83.7823H316.551V75.7049H315.217V83.7823ZM329.027 79.7203C329.027 82.2415 330.732 83.9873 333.041 83.9873C335.381 83.9873 337.086 82.2415 337.086 79.7203C337.086 77.1305 335.381 75.4992 333.041 75.4992C330.732 75.4992 329.027 77.1305 329.027 79.7203ZM330.478 79.7203C330.478 78.0543 331.505 76.7651 333.051 76.7651C334.608 76.7651 335.635 78.0543 335.635 79.7203C335.635 81.4428 334.587 82.698 333.051 82.698C331.526 82.698 330.478 81.4428 330.478 79.7203ZM349.561 83.7823H350.895V77.5412H350.917L354.475 83.7823H356.169V75.7049H354.835V81.7516H354.813L351.33 75.7049H349.561V83.7823ZM373.696 76.3664C373.124 75.7847 372.267 75.4992 371.515 75.4992C370.159 75.4992 368.772 76.2293 368.772 77.872C368.772 79.3782 369.757 79.8574 370.667 80.1655C371.61 80.485 372.393 80.7246 372.393 81.5686C372.393 82.4358 371.662 82.7666 371.038 82.7666C370.445 82.7666 369.767 82.4245 369.396 81.8767L368.443 82.8352C369.036 83.5886 370.042 83.9873 371.016 83.9873C372.488 83.9873 373.749 83.1433 373.749 81.4088C373.749 79.8228 372.52 79.3662 371.556 79.0467C370.709 78.7612 370.126 78.5449 370.126 77.8034C370.126 77.016 370.836 76.6966 371.45 76.6966C371.979 76.6966 372.541 76.9934 372.827 77.3928L373.695 76.3658L373.696 76.3664Z" fill="#7ACFBE"/>
</svg>
